<svg version="1.0" xmlns="http://www.w3.org/2000/svg" width="700.000000pt" height="663.000000pt"
  viewBox="0 0 700.000000 663.000000" preserveAspectRatio="xMidYMid meet">
  <metadata>
    Created by potrace 1.12, written by Peter Selinger 2001-2015
  </metadata>
  <g transform="translate(0.000000,663.000000) scale(0.100000,-0.100000)" fill="#000000"
    stroke="none">
    <path d="M1158 6619 c-261 -25 -522 -115 -734 -254 -155 -101 -253 -215 -335
-390 -98 -209 -112 -407 -38 -546 l30 -55 -26 -56 c-44 -95 -60 -207 -46 -316
36 -298 254 -564 500 -613 52 -10 60 -15 85 -55 61 -97 186 -179 311 -204 l59
-12 -29 -22 c-149 -108 -327 -284 -410 -406 -34 -49 -55 -70 -69 -70 -34 0
-120 -55 -163 -104 -55 -62 -109 -169 -129 -252 -36 -156 14 -264 123 -264
l38 0 2 -58 c3 -73 35 -177 67 -221 73 -98 180 -95 254 7 l28 39 29 -23 c35
-28 100 -32 145 -9 64 33 110 130 110 230 l0 52 98 7 c264 19 598 127 816 263
l49 31 66 -30 c61 -27 160 -58 187 -58 31 0 54 37 69 110 8 41 25 108 37 148
l21 73 44 -3 44 -3 2 -105 c2 -96 5 -110 32 -159 29 -53 93 -111 122 -111 11
0 12 -11 6 -52 -4 -29 -8 -101 -7 -159 l1 -107 -41 -4 c-116 -13 -212 -112
-247 -254 -7 -27 -13 -50 -14 -52 -1 -1 -26 10 -55 25 -36 18 -73 28 -115 31
-54 4 -65 1 -91 -21 -26 -23 -29 -31 -28 -84 0 -63 21 -113 72 -173 l30 -35
-36 -20 c-46 -26 -64 -59 -59 -110 4 -39 2 -41 -51 -75 -128 -81 -314 -285
-368 -404 -25 -56 -26 -61 -14 -115 22 -98 193 -403 277 -492 14 -15 21 -29
16 -32 -18 -10 -182 -46 -261 -57 -79 -11 -86 -10 -145 14 -90 36 -178 48
-256 35 -58 -9 -74 -7 -165 18 -82 22 -122 27 -216 28 -111 0 -117 -1 -170
-31 -160 -91 -202 -330 -94 -545 110 -220 338 -315 495 -208 25 18 28 18 80
-3 78 -32 228 -31 319 1 113 39 155 69 385 273 48 43 116 92 151 109 85 42
156 42 319 -2 162 -43 251 -45 317 -7 30 18 60 49 87 88 185 278 -173 588
-506 436 l-55 -26 -22 27 c-123 154 -187 266 -236 416 -33 100 -35 96 114 243
l134 132 60 -5 c44 -4 68 -1 92 11 18 9 35 16 37 16 1 0 3 -20 3 -45 0 -96 71
-175 164 -183 45 -4 56 -1 84 23 41 34 52 56 61 114 5 29 12 45 20 43 183 -39
372 32 426 161 8 20 17 37 19 37 3 0 38 -13 79 -30 333 -133 726 -103 1027 80
l35 21 67 -45 c72 -48 150 -71 212 -64 34 4 37 2 31 -16 -4 -12 -9 -45 -12
-73 -7 -64 12 -98 65 -120 80 -33 184 13 227 101 l27 54 35 -24 c20 -13 50
-24 68 -24 18 0 39 -7 46 -17 8 -9 66 -61 129 -117 140 -122 218 -203 267
-274 l37 -53 -18 -52 c-32 -90 -106 -190 -197 -267 l-50 -42 -43 40 c-119 109
-310 149 -473 98 -73 -23 -170 -92 -209 -149 -18 -26 -38 -72 -45 -102 -10
-47 -10 -64 6 -120 38 -143 98 -181 391 -249 277 -64 275 -63 534 -325 234
-238 290 -286 390 -336 113 -57 225 -68 353 -35 126 32 189 77 227 162 20 47
26 51 87 63 47 9 110 59 134 107 31 59 37 181 15 268 -45 175 -134 261 -324
312 -66 17 -123 21 -387 28 -238 6 -324 12 -370 24 -69 19 -76 24 -53 37 69
39 162 143 213 240 92 175 84 339 -26 527 -47 78 -209 238 -358 352 -69 52
-126 100 -128 105 -1 6 17 18 41 28 57 24 119 77 140 122 14 30 15 42 6 71
-17 49 -56 64 -171 64 -83 0 -91 2 -84 18 45 117 11 261 -87 368 -23 24 -39
46 -37 49 3 2 40 19 84 38 44 19 133 58 198 86 179 78 250 95 387 96 121 0
187 -13 302 -59 158 -64 299 -188 364 -320 38 -78 39 -83 39 -188 l0 -107 42
41 c53 52 95 131 125 233 20 69 23 101 22 240 0 140 -4 172 -26 255 -15 52
-26 96 -25 96 1 1 48 -19 103 -46 136 -64 234 -128 322 -212 40 -38 77 -66 81
-63 28 17 30 256 2 381 -49 226 -197 482 -361 625 -33 29 -58 54 -56 56 3 3
35 0 72 -6 38 -6 69 -9 71 -8 1 2 -23 42 -55 90 -67 101 -162 218 -210 257
l-34 28 28 48 c23 38 29 62 32 129 6 120 -25 217 -101 317 l-35 46 67 26 c208
81 470 325 575 535 60 118 81 230 56 295 -7 20 -4 37 18 83 23 49 27 71 27
143 0 89 -13 129 -58 178 -46 50 -150 15 -260 -88 -36 -33 -67 -60 -70 -60 -3
0 -1 15 4 32 17 59 11 230 -10 298 -26 84 -61 120 -117 120 -58 0 -80 -21
-184 -175 -129 -190 -181 -227 -658 -465 -174 -86 -339 -171 -367 -187 -33
-19 -92 -39 -174 -57 -285 -63 -734 -231 -1165 -435 -70 -34 -132 -61 -136
-61 -4 0 -10 13 -13 30 -9 41 -58 70 -119 70 -44 0 -52 -4 -114 -61 -67 -60
-83 -63 -84 -17 0 38 -45 135 -77 167 -27 27 -39 32 -63 29 -28 -4 -35 1 -74
56 -83 117 -195 200 -331 248 -44 15 -97 28 -118 28 -33 0 -44 7 -89 58 -118
131 -279 279 -360 332 -73 47 -89 62 -108 105 -13 28 -51 78 -86 113 -52 51
-84 73 -186 122 -187 90 -290 118 -497 139 -116 12 -196 12 -323 0z m290 -59
c205 -16 335 -51 512 -140 116 -58 264 -180 218 -180 -6 0 -16 7 -22 16 -10
13 -21 14 -76 4 -155 -26 -288 -104 -392 -228 -45 -54 -103 -170 -114 -226 -8
-47 -17 -35 -34 49 -11 54 -13 58 -22 35 -19 -50 -2 -207 36 -335 95 -316 108
-366 117 -450 6 -49 10 -145 10 -211 0 -227 -45 -362 -164 -486 -144 -150
-339 -228 -537 -215 -98 7 -136 18 -205 62 -113 72 -177 172 -183 286 -4 59
-1 74 24 119 15 28 53 79 84 113 86 95 113 140 69 117 -11 -7 -23 -9 -26 -6
-8 7 44 244 73 333 39 119 111 256 176 333 70 85 54 93 -24 13 -67 -69 -138
-177 -178 -271 -40 -93 -86 -269 -100 -376 -11 -87 -13 -91 -59 -142 -82 -90
-104 -137 -109 -231 -3 -59 -8 -83 -17 -83 -8 0 -50 19 -94 42 -131 66 -253
213 -314 376 -17 48 -21 80 -21 197 -1 137 0 141 31 207 44 94 159 245 265
350 189 185 450 322 721 378 92 19 72 34 -35 26 -139 -9 -283 -54 -418 -129
-41 -23 -87 -49 -102 -57 -97 -53 -280 -224 -373 -347 -21 -29 -42 -53 -46
-53 -4 0 -16 21 -26 48 -24 62 -23 231 2 317 61 208 182 377 350 490 214 143
488 237 745 254 63 5 117 9 120 10 3 0 65 -4 138 -9z m5070 -55 c29 -36 46
-149 47 -299 l0 -129 -48 -41 c-44 -37 -63 -44 -228 -88 -179 -47 -320 -103
-369 -147 -31 -28 -23 -26 100 19 47 17 168 51 270 75 195 46 238 60 301 102
46 30 46 36 -1 23 -19 -5 -35 -8 -37 -6 -7 7 232 199 274 219 50 24 69 19 92
-28 33 -67 3 -266 -38 -250 -70 27 -79 23 -278 -138 l-128 -104 -115 -22
c-198 -39 -363 -96 -386 -132 -8 -13 -14 -15 161 29 66 17 172 42 236 56 119
27 245 78 234 95 -3 6 5 15 17 22 13 6 63 43 112 81 101 79 122 82 151 22 62
-132 -125 -447 -380 -637 -75 -56 -262 -157 -291 -157 -18 0 -93 52 -94 65 0
22 -61 84 -92 94 l-33 11 26 -20 c15 -11 34 -32 44 -46 l17 -26 -44 7 -43 6
50 -24 c113 -55 211 -179 260 -331 33 -103 32 -191 -5 -250 -24 -40 -86 -80
-139 -91 -36 -8 -42 -3 -173 154 -84 101 -124 124 -296 165 -177 42 -238 64
-315 118 -33 21 -61 37 -64 34 -3 -3 5 -18 16 -35 l22 -30 -23 -5 c-13 -3 -66
-10 -118 -16 -158 -18 -420 -82 -420 -102 0 -4 10 -6 23 -4 70 15 114 16 124
4 48 -62 -16 -110 -112 -85 -29 8 -29 7 -9 -7 12 -8 39 -17 60 -20 41 -4 46
-16 17 -48 -33 -37 -150 -13 -228 46 -57 43 -60 37 -6 -13 36 -34 52 -55 48
-66 -19 -47 -90 -15 -160 72 -28 34 -55 63 -60 63 -5 0 -6 7 -3 16 6 15 -2 16
-74 10 -165 -14 -401 -75 -495 -129 -53 -30 -45 -51 13 -33 21 7 29 -6 120
-191 54 -109 126 -265 161 -348 36 -82 68 -154 72 -158 3 -5 3 13 -2 39 -5 26
-7 49 -5 51 2 2 33 -28 69 -67 118 -125 216 -371 247 -624 14 -114 5 -196 -21
-196 -51 0 -209 -83 -209 -110 0 -5 21 2 48 16 73 38 149 50 228 37 185 -32
317 -173 331 -356 5 -68 -2 -110 -33 -204 -4 -10 6 -1 21 19 27 37 30 38 89
37 85 0 156 -14 167 -30 14 -22 10 -52 -9 -75 -26 -31 -100 -82 -137 -94 -30
-10 -38 -8 -74 15 -54 36 -75 27 -26 -11 112 -85 125 -193 29 -239 -69 -32
-142 -1 -190 81 -32 55 -43 50 -20 -10 16 -42 16 -47 0 -78 -37 -73 -87 -108
-158 -108 -36 0 -48 5 -65 26 -26 32 -26 45 -4 108 13 35 27 55 51 69 17 10
32 21 32 23 0 3 -44 4 -97 2 -114 -2 -172 13 -244 66 -129 95 -189 304 -130
456 26 67 26 67 2 46 -59 -53 -88 -222 -57 -329 9 -31 19 -63 22 -71 8 -20
-191 -116 -306 -147 -74 -21 -107 -24 -250 -23 -146 1 -177 4 -265 27 -151 40
-307 122 -400 209 -158 147 -246 317 -275 528 -6 45 -8 112 -4 150 l7 70 36 6
c96 18 192 92 227 177 11 28 25 47 35 47 42 0 114 36 166 84 65 59 108 141
119 222 l6 53 62 20 c56 18 93 28 169 45 15 4 27 11 27 16 0 12 -51 6 -173
-22 -49 -11 -90 -18 -91 -16 -2 1 -13 23 -24 48 -12 25 -28 55 -37 67 -16 20
-15 22 41 47 38 18 82 52 137 106 65 66 88 82 125 91 55 12 79 24 115 58 66
61 76 141 27 210 -33 45 -33 45 34 56 140 23 261 166 224 264 -22 58 -103 101
-191 101 l-38 0 44 55 c53 64 87 130 102 199 l11 49 180 79 c379 168 685 282
1059 398 271 83 341 109 305 110 l-25 1 28 15 c16 8 112 51 213 95 400 171
638 311 723 424 20 27 62 89 93 137 88 135 109 150 146 103z m-4417 -301 c74
-22 190 -84 274 -146 39 -29 138 -118 220 -198 185 -180 245 -233 252 -226 3
2 -5 19 -17 37 l-23 31 24 -7 c138 -41 304 -152 399 -266 l40 -47 -62 -99
c-58 -89 -197 -243 -221 -243 -13 0 -294 -141 -345 -174 -24 -15 -45 -26 -45
-24 -1 2 -12 22 -24 45 -13 23 -23 54 -23 69 0 18 -4 25 -13 21 -8 -3 -46 26
-88 66 -75 73 -173 133 -256 158 -32 9 -43 17 -43 32 0 17 5 19 38 14 20 -3
46 -8 56 -13 12 -5 17 -4 13 3 -4 6 -26 16 -51 23 -43 12 -43 12 -32 42 6 17
33 46 61 66 87 63 97 79 24 37 -24 -14 -47 -25 -51 -25 -4 0 1 23 13 51 11 29
18 53 16 56 -9 8 -59 -62 -92 -128 -19 -37 -62 -134 -96 -216 -79 -192 -122
-273 -177 -334 -41 -46 -122 -100 -122 -82 0 5 -1 94 -3 198 -4 219 -16 277
-114 585 -37 117 -40 156 -18 249 31 130 119 265 226 348 46 35 181 112 200
113 3 0 30 -7 60 -16z m1281 -869 c31 -55 60 -281 42 -329 -3 -9 -27 -31 -52
-49 -26 -19 -81 -64 -122 -101 -49 -44 -89 -70 -115 -77 -225 -58 -370 -119
-445 -189 -53 -49 -53 -49 70 12 52 26 167 72 255 102 214 72 245 87 296 138
101 99 190 134 223 86 38 -54 6 -202 -75 -360 -40 -75 -41 -76 -74 -71 -49 8
-96 -12 -195 -83 -89 -64 -92 -65 -193 -80 -112 -17 -227 -57 -297 -104 -55
-36 -49 -38 21 -5 69 31 143 50 294 76 66 11 138 25 159 32 37 10 38 12 15 17
-21 5 -17 10 44 44 97 54 130 63 161 43 33 -22 50 -84 37 -135 -16 -57 -76
-151 -139 -215 -71 -72 -152 -112 -326 -161 -110 -31 -254 -91 -243 -102 2 -2
27 5 55 16 78 30 82 24 22 -31 -81 -74 -183 -134 -290 -170 -119 -39 -236 -43
-340 -10 -72 23 -85 21 -43 -5 15 -10 30 -19 32 -21 17 -12 -186 -181 -304
-253 -263 -162 -660 -280 -941 -280 -84 0 -124 -7 -124 -21 0 -10 66 -29 103
-29 27 0 28 -2 22 -37 -25 -145 -91 -235 -160 -217 -58 14 -95 93 -95 202 0
43 -3 61 -11 56 -7 -4 -10 -45 -7 -119 l3 -114 -30 -31 c-32 -34 -75 -60 -99
-60 -24 0 -75 49 -98 94 -32 62 -48 133 -48 212 0 88 20 155 59 205 39 48 39
56 1 29 -34 -24 -72 -85 -90 -145 -7 -22 -15 -43 -19 -47 -13 -14 -81 13 -98
39 -24 36 -21 141 7 223 58 173 176 289 295 290 27 1 28 2 13 14 -16 12 -13
19 39 82 76 93 186 200 286 277 148 115 186 136 283 156 139 29 280 96 361
173 24 24 53 36 128 54 157 38 394 59 367 32 -14 -14 -16 -28 -4 -28 5 0 39
26 78 58 200 168 438 319 879 557 162 87 248 140 191 119 -13 -5 -7 8 22 44
22 29 57 80 78 114 63 106 74 119 97 116 12 -2 29 -17 39 -33z m344 -99 c26
-19 24 -86 -5 -151 -27 -62 -103 -195 -110 -195 -3 0 -14 19 -24 40 -18 39
-59 70 -92 70 -12 0 -15 13 -15 65 0 65 0 65 38 84 20 11 55 38 77 60 31 33
46 41 75 41 20 0 45 -6 56 -14z m-1491 -98 c75 -38 171 -114 225 -179 l42 -49
-33 -56 c-60 -98 -136 -180 -274 -293 -154 -126 -161 -128 -219 -57 -33 40
-87 139 -101 184 -5 17 3 33 39 74 47 54 135 216 181 333 15 39 29 74 32 78 6
11 36 1 108 -35z m300 -334 c-42 -33 -46 -30 -22 17 18 37 21 39 36 24 15 -15
14 -18 -14 -41z m2933 -8 c58 -29 184 -70 278 -91 68 -15 154 -63 154 -86 0
-5 -20 -9 -44 -9 -72 0 -215 -29 -324 -65 -139 -47 -252 -102 -374 -184 -199
-133 -309 -269 -468 -574 l-83 -159 -38 72 c-22 40 -52 91 -68 113 -39 56
-134 146 -201 189 -53 33 -56 39 -83 117 -34 103 -99 238 -171 359 l-55 93 27
10 c42 17 379 108 409 111 22 3 35 -7 77 -63 28 -37 69 -79 91 -93 61 -41 125
-32 125 17 0 14 4 17 18 12 9 -5 38 -13 64 -18 61 -14 114 8 123 50 7 30 9 35
39 78 19 26 19 29 3 57 -12 21 -13 30 -4 33 22 8 371 53 415 54 27 1 60 -8 90
-23z m-1705 -20 c137 -57 0 -238 -192 -254 -53 -4 -63 -2 -58 9 3 8 22 50 41
94 20 44 39 102 42 129 l7 49 63 -6 c34 -3 78 -13 97 -21z m-1859 -240 c14
-25 31 -48 36 -51 24 -15 4 -23 -77 -29 -49 -4 -122 -14 -163 -22 -41 -8 -76
-14 -77 -14 -1 0 14 23 32 50 19 28 44 82 56 120 19 56 27 70 43 70 12 1 34 7
51 14 l30 12 21 -52 c11 -29 33 -73 48 -98z m4042 16 c12 -4 43 -33 68 -65 59
-72 95 -91 153 -83 24 3 57 13 74 21 29 16 32 15 66 -11 36 -28 164 -174 196
-225 l19 -29 -51 0 c-39 0 -65 8 -114 35 -119 65 -198 87 -337 92 -110 4 -139
2 -245 -22 -279 -62 -514 -182 -722 -367 -74 -67 -215 -222 -321 -357 -23 -29
-42 -50 -42 -46 0 17 109 217 163 299 170 259 362 430 595 532 85 37 87 45 3
14 -153 -59 -276 -143 -422 -289 -127 -127 -236 -280 -324 -455 l-49 -96 -18
46 -19 47 50 76 c27 42 79 126 116 186 95 155 153 231 243 317 210 201 506
347 763 377 91 10 128 11 155 3z m-2403 -123 c53 -46 67 -90 47 -140 -15 -35
-63 -74 -102 -84 -33 -8 -32 -10 -13 45 19 53 19 137 0 170 -36 62 2 68 68 9z
m2581 -224 c228 -48 459 -245 605 -515 76 -142 141 -377 141 -513 l0 -41 -62
60 c-35 34 -84 75 -110 93 -59 40 -189 103 -274 133 -57 20 -69 28 -86 63 -32
61 -163 184 -256 239 -134 79 -225 107 -368 113 -172 8 -315 -22 -466 -97 -84
-42 -56 -13 69 70 278 187 503 236 720 160 73 -25 82 -18 11 8 -89 33 -172 45
-266 39 -112 -8 -185 -28 -299 -82 -190 -89 -344 -208 -609 -467 -89 -87 -163
-158 -166 -158 -3 0 -8 18 -12 39 -3 22 -8 46 -11 54 -11 26 329 389 462 493
297 234 711 365 977 309z m-2987 -380 c82 -160 -77 -386 -252 -359 -43 6 -96
35 -162 90 -31 25 -33 25 -33 7 0 -30 55 -99 110 -139 28 -20 50 -40 50 -44 0
-23 -71 -96 -115 -119 -74 -38 -150 -36 -202 5 -62 50 -77 85 -81 192 -5 99 0
112 41 112 33 0 167 59 236 104 77 50 197 158 206 187 4 11 16 19 28 20 12 0
42 6 67 13 55 15 70 5 107 -69z m2668 -70 c131 -27 326 -140 411 -238 48 -55
108 -182 135 -282 44 -167 36 -401 -19 -540 -22 -55 -20 -57 -37 50 -4 22 -22
74 -42 115 -28 60 -54 94 -128 167 -82 82 -104 97 -206 146 -180 87 -323 111
-484 83 -122 -21 -197 -50 -413 -162 l-184 -95 -64 28 -64 27 7 51 c3 27 13
56 22 62 60 47 200 138 271 176 334 179 675 213 890 89 69 -39 155 -127 232
-234 39 -54 72 -98 75 -98 3 0 -8 21 -23 48 -82 141 -174 251 -254 302 -273
175 -743 96 -1130 -190 l-78 -58 -6 31 c-6 28 -2 36 26 61 18 16 83 73 143
127 128 114 164 141 271 203 216 124 453 172 649 131z m-3572 -246 c-13 -33
-32 -92 -42 -132 -13 -49 -24 -73 -35 -75 -18 -4 -164 37 -171 48 -2 4 24 27
58 53 34 25 91 75 126 110 79 81 98 79 64 -4z m347 -771 c62 -205 206 -402
377 -515 29 -20 53 -39 53 -42 0 -19 -45 -74 -80 -100 -66 -48 -132 -66 -240
-65 -79 0 -106 5 -160 27 -35 14 -66 24 -69 22 -8 -9 33 -47 72 -66 43 -22 46
-42 18 -106 -21 -46 -45 -63 -88 -63 -78 0 -137 86 -131 189 l3 58 -38 -25
c-25 -17 -57 -27 -92 -30 -46 -4 -61 0 -100 22 -61 36 -97 92 -93 142 3 34 8
42 39 57 20 10 66 20 103 24 36 3 66 9 66 13 0 11 -38 20 -82 20 -33 0 -41 5
-68 45 -17 25 -40 64 -50 88 -55 121 22 163 165 90 58 -29 59 -30 71 -89 16
-76 31 -114 45 -114 6 0 8 11 5 28 -21 109 -14 198 24 287 26 61 86 124 145
151 76 36 80 34 105 -48z m2752 -781 c138 -140 247 -302 220 -329 -5 -5 -33
-10 -63 -11 -49 -2 -54 0 -57 21 -3 16 -8 21 -20 18 -12 -4 -25 7 -44 37 -35
54 -159 177 -270 265 l-86 68 34 28 c23 18 38 42 46 71 l12 44 60 -52 c34 -29
109 -101 168 -160z m-3277 63 l26 -17 -72 -59 c-40 -32 -99 -92 -130 -131 -40
-50 -60 -69 -66 -60 -5 8 -9 2 -13 -18 -5 -28 -8 -30 -49 -28 -23 1 -58 11
-77 22 -42 25 -51 26 -33 5 21 -26 66 -44 109 -44 45 0 53 -10 65 -92 l7 -45
-50 -21 c-54 -23 -124 -28 -166 -12 -29 11 -51 75 -41 120 17 77 193 288 330
397 l80 64 27 -32 c15 -17 39 -40 53 -49z m3519 -445 c8 -27 7 -140 0 -159 -9
-23 -52 -20 -104 7 -34 16 -44 27 -42 42 1 11 5 45 8 75 l6 55 64 0 c55 0 64
-3 68 -20z m-3711 -113 c46 -115 168 -282 258 -353 44 -34 60 -33 35 3 -40 57
2 51 62 -9 72 -72 91 -167 56 -282 -14 -50 -17 -53 -42 -47 -15 4 -70 9 -123
13 -109 6 -162 -6 -244 -58 -37 -24 -50 -28 -56 -17 -5 7 -9 18 -9 24 0 6 -13
29 -29 51 -16 22 -28 49 -28 59 2 14 -13 23 -67 41 -38 12 -73 26 -78 31 -6 6
19 16 59 26 37 9 99 29 137 43 55 21 73 24 88 14 14 -9 18 -8 18 2 0 13 -26
53 -163 254 -42 62 -90 139 -106 171 l-29 58 71 0 c56 -1 81 4 112 21 22 12
42 22 45 22 3 1 17 -30 33 -67z m3593 -67 c22 -15 51 -25 71 -25 31 0 34 -2
28 -22 -31 -103 -130 -237 -233 -318 -39 -30 -69 -56 -68 -58 2 -2 19 3 37 11
31 12 38 11 79 -10 71 -36 192 -62 350 -75 80 -6 146 -12 148 -13 1 -1 -9 -24
-23 -50 -14 -26 -25 -53 -25 -59 0 -14 -225 -10 -289 5 -24 5 -46 8 -49 5 -8
-8 78 -43 126 -51 56 -9 60 -20 15 -42 -84 -39 -213 -206 -213 -275 0 -10 -1
-18 -3 -18 -2 0 -66 63 -143 140 -122 122 -149 144 -214 174 -41 19 -102 41
-134 50 -33 8 -63 21 -67 28 -28 43 4 207 54 283 39 60 49 70 91 99 45 30 55
31 82 12 18 -14 18 -15 -11 -46 -30 -32 -30 -32 -5 -25 101 30 235 133 303
233 27 39 51 72 53 72 2 0 20 -11 40 -25z m-511 -136 c81 -31 82 -33 32 -62
-89 -53 -151 -184 -152 -324 0 -67 -3 -83 -15 -83 -24 1 -136 26 -148 34 -7 4
-19 32 -28 63 -40 136 26 314 141 385 35 21 89 17 170 -13z m-251 -11 c-40
-43 -57 -73 -77 -132 -21 -62 -22 -179 -2 -236 8 -24 13 -45 11 -47 -5 -5
-103 33 -132 51 -13 9 -33 34 -44 55 -41 81 -35 159 17 228 40 55 154 111 227
112 l30 1 -30 -32z m-2300 -84 c7 -3 26 -27 44 -54 43 -66 66 -158 58 -233 -6
-58 -35 -139 -53 -150 -8 -5 -142 20 -151 28 -1 1 5 22 14 46 19 52 21 181 4
224 -17 43 -58 94 -93 115 -33 20 -29 25 28 33 31 5 129 -1 149 -9z m147 -71
c90 -68 121 -169 80 -258 -21 -46 -83 -105 -111 -105 -18 0 -18 1 -2 38 11 26
16 66 16 132 1 83 -3 102 -26 150 -15 30 -35 65 -44 78 -17 22 -17 23 12 12
15 -6 49 -27 75 -47z m-1634 -89 c97 -22 99 -24 59 -63 l-34 -33 -35 34 c-19
19 -50 42 -70 52 -21 9 -37 19 -37 21 0 9 50 5 117 -11z m-112 -24 c22 -11 58
-37 79 -59 l38 -39 -27 -78 c-24 -69 -27 -90 -23 -169 5 -103 36 -186 91 -243
37 -38 30 -47 -40 -58 -136 -20 -283 93 -354 273 -47 119 -25 287 47 359 31
31 40 34 91 34 36 0 72 -7 98 -20z m524 -32 c111 -53 209 -206 219 -338 9
-133 -23 -187 -135 -231 -45 -18 -79 -23 -153 -23 -85 -1 -101 2 -152 27 -107
53 -158 141 -158 274 0 148 70 253 199 299 56 20 128 17 180 -8z m208 -57 c54
-22 115 -43 135 -46 40 -8 91 -56 109 -102 21 -57 12 -74 -96 -171 -56 -50
-105 -92 -107 -92 -3 0 -1 21 4 48 19 101 -33 261 -117 360 -20 23 -34 42 -31
42 3 0 50 -18 103 -39z m4589 -26 c80 -15 164 -43 164 -54 0 -3 -18 -16 -40
-29 -44 -25 -93 -85 -112 -138 -7 -19 -15 -34 -18 -34 -3 0 -32 20 -65 45 -54
41 -130 83 -177 99 -28 9 -21 39 18 84 34 40 38 42 94 42 32 0 93 -7 136 -15z
m241 -117 c52 -54 75 -120 80 -228 4 -81 2 -100 -15 -130 -22 -39 -63 -67
-106 -72 -25 -3 -30 1 -41 37 -17 58 -42 102 -93 167 -50 65 -51 75 -3 151 28
43 109 107 136 107 6 0 25 -15 42 -32z m-521 -64 c43 -14 144 -71 144 -80 0
-2 -20 -9 -45 -15 -60 -15 -151 -75 -198 -130 -55 -64 -97 -157 -98 -218 -1
-33 -6 -51 -14 -51 -7 0 -54 39 -105 87 -85 80 -91 89 -86 117 20 102 130 241
230 292 56 28 86 27 172 -2z m237 -157 c169 -168 182 -331 34 -401 -145 -68
-288 -62 -416 16 -33 21 -33 22 -27 80 14 140 142 288 289 333 64 21 74 18
120 -28z"></path>
    <path d="M1589 4841 c-32 -132 -110 -258 -209 -338 -67 -55 -45 -56 27 -3 112
85 190 217 200 339 3 39 4 71 2 71 -2 0 -11 -31 -20 -69z"></path>
    <path d="M1980 5811 c-72 -26 -124 -81 -144 -153 -13 -46 -33 -309 -21 -283 2
6 13 64 25 130 11 65 29 138 39 160 38 86 138 132 262 122 121 -10 208 -64
245 -152 20 -48 31 -31 14 21 -18 55 -87 118 -156 144 -84 31 -194 36 -264 11z"></path>
  </g>
</svg>